<?xml version="1.0" encoding="UTF-8" standalone="no"?>
<!DOCTYPE svg PUBLIC "-//W3C//DTD SVG 1.1//EN" "http://www.w3.org/Graphics/SVG/1.1/DTD/svg11.dtd">
<svg width="100%" height="100%" viewBox="0 0 275 350" version="1.1" xmlns="http://www.w3.org/2000/svg" xmlns:xlink="http://www.w3.org/1999/xlink" xml:space="preserve" xmlns:serif="http://www.serif.com/" style="fill-rule:evenodd;clip-rule:evenodd;stroke-linejoin:round;stroke-miterlimit:2;">
    <g id="c">
        <path d="M137.365,13.968L260.356,33.555L260.897,195.456C260.996,225.033 246.878,252.857 222.949,270.242L137.321,332.455L51.743,270.278C27.786,252.873 13.665,225.006 13.795,195.395L14.507,33.555L137.365,13.968M137.364,0L135.194,0.346L12.335,19.933L0.765,21.778L0.713,33.494L0.001,195.334C-0.073,212.04 3.88,228.747 11.432,243.649C18.984,258.551 30.119,271.618 43.635,281.438L129.213,343.614L137.321,349.505L145.429,343.614L231.057,281.402C244.557,271.594 255.684,258.544 263.235,243.663C270.786,228.782 274.747,212.097 274.692,195.41L274.15,33.509L274.111,21.778L262.526,19.933L139.535,0.346L137.364,0Z" style="fill:rgb(255,168,19);fill-rule:nonzero;"/>
    </g>
    <g id="d">
        <g>
            <path d="M93.039,77.569L74.261,77.569L74.261,72.649L69.24,72.649L69.24,219.15L74.261,219.15L74.261,256.483L41.122,234.982L41.122,219.15L46.244,219.15L46.244,72.649L41.122,72.649L41.122,77.569L22.343,77.569L22.343,57.632L93.039,48.351L93.039,77.569Z" style="fill:rgb(255,168,19);fill-rule:nonzero;"/>
            <path d="M145.504,262.153L145.504,150.566L129.136,150.566L129.136,262.153L134.157,262.153L134.157,297.447L101.118,272.477L101.118,262.153L106.14,262.153L106.14,76.884L101.118,72.649L101.118,46.492L134.354,42.428L134.157,72.649L129.136,76.884L129.136,129.98L145.504,129.98L145.504,76.884L140.484,72.649L140.681,42.428L173.522,46.492L173.522,72.649L168.501,77.115L168.501,261.842L173.522,262.153L173.522,272.477L140.484,297.447L140.484,262.153L145.504,262.153Z" style="fill:rgb(255,168,19);fill-rule:nonzero;"/>
            <path d="M219.003,150.316L210.473,150.316L210.473,218.598L220.113,218.598L220.113,242.422L182.455,266.235L182.455,218.598L187.477,218.519L187.477,76.564L182.455,72.097L182.455,47.8L249.573,55.977L249.573,80.494L230.694,80.494L227.619,72.097L210.473,72.097L210.473,131.437L219.003,131.437L222.06,122.572L237.088,122.572L237.088,159.564L223.216,159.564L219.003,150.316L219.003,150.316Z" style="fill:rgb(255,168,19);fill-rule:nonzero;"/>
        </g>
    </g>
</svg>
