<?xml version="1.0" encoding="UTF-8"?>
<svg id="b" data-name="Ebene_2" xmlns="http://www.w3.org/2000/svg" width="274.692095" height="349.505203" viewBox="0 0 274.692095 349.505203">
  <g id="c" data-name="Shield">
    <path d="M137.365424,13.968087l122.991,19.586894.541055,161.901274c.098876,29.577204-14.019402,57.400678-37.947996,74.785896l-85.628344,62.212584-85.578569-62.176449c-23.95641-17.40539-38.077955-45.271903-37.947592-74.883324l.712134-161.839981,122.858312-19.586894M137.364245,0l-2.170584.345989L12.335382,19.932883l-11.570646,1.844726-.051593,11.716678L.001009,195.334277c-.073584,16.705952,3.879187,33.413016,11.430853,48.314992,7.551665,14.901875,18.687171,27.96906,32.202731,37.788703l85.578536,62.176449,8.10801,5.890783,8.107976-5.890783,85.628378-62.212584c13.499901-9.808294,24.626583-22.858102,32.177373-37.738828,7.55079-14.880625,11.512418-31.566202,11.456649-48.252891l-.541055-161.901265-.0392-11.731311-11.585363-1.845029L139.534863.345619l-2.170618-.345619h0Z" fill="#013369"/>
  </g>
  <g id="d" data-name="Text">
    <g>
      <path d="M93.039474,77.569377h-18.778301v-4.920615h-5.021377v146.501145h5.021377v37.333289l-33.139255-21.501387v-15.831902h5.1216V72.648761h-5.1216v4.920615h-18.77884v-19.937329l70.696396-9.280774v29.218103Z" fill="#d50a0a"/>
      <path d="M145.504483,262.15268v-111.586456h-16.368643v111.586456h5.020838v35.2941l-33.038494-24.969353v-10.324747h5.021377V76.884164l-5.021377-4.235403v-26.156387l33.235501-4.064835-.197007,30.221223-5.020838,4.235403v53.095708h16.368643v-53.095708l-5.020838-4.235403.197007-30.221223,32.841487,4.064835v26.156387l-5.021377,4.466601v184.726971l5.021377.310348v10.324747l-33.038494,24.969353v-35.2941h5.020838Z" fill="#d50a0a"/>
      <path d="M219.00285,150.315667h-8.529757v68.282475h9.640246v23.823611l-37.657902,23.813364v-47.636975l5.021377-.07915V76.563598l-5.021377-4.466601v-24.297487l67.117335,8.177246v24.517203h-18.879062l-3.074471-8.396962h-17.146146v59.339608h8.529757l3.057395-8.864663h15.027851v36.991634h-13.871863l-4.213384-9.247908Z" fill="#d50a0a"/>
    </g>
  </g>
</svg>